<svg xmlns="http://www.w3.org/2000/svg" viewBox="0 0 292.97 27.7"><defs><style>.cls-1{fill:#333;}</style></defs><title>delphix-logo-black1x</title><g id="Layer_2" data-name="Layer 2"><g id="Layer_1-2" data-name="Layer 1"><path class="cls-1" d="M9.7,0H3.4A3.37,3.37,0,0,0,0,3.4V24.2a3.37,3.37,0,0,0,3.4,3.4H9.7c8.5,0,14.7-5.8,14.7-13.9v-.1C24.4,5.8,18.2,0,9.7,0ZM20.8,13.9h0c0,6.3-4.6,10.6-11.1,10.6H3.5V4.3a1,1,0,0,1,1-1H9.7C16.2,3.3,20.8,7.6,20.8,13.9Z"/><path class="cls-1" d="M152.7,0h-7a3.37,3.37,0,0,0-3.4,3.4v24a.22.22,0,0,0,.2.2H145a.79.79,0,0,0,.8-.8V18h5.9c6.2,0,11.4-2.8,11.4-9.2v.1C163.1,3.5,159,0,152.7,0Zm-6,3.3h5.8c4.5,0,7.1,2.1,7.1,5.7v.1c0,3.5-2.9,5.8-7.3,5.8h-6.5V4.2A.9.9,0,0,1,146.7,3.3Z"/><path class="cls-1" d="M292.9,27.4,282.6,13.6,292.5.4c.1-.1.1-.2,0-.2s-.1-.1-.2-.1h-2a3.5,3.5,0,0,0-2.8,1.4l-7.2,9.7-7.2-9.7A3.37,3.37,0,0,0,270.3.1h-2c-.1,0-.2,0-.2.1V.4L278,13.6,267.7,27.4c-.1.1-.1.2,0,.2s.1.1.2.1h1.9a3.5,3.5,0,0,0,2.8-1.4l7.6-10.2,7.6,10.2a3.37,3.37,0,0,0,2.8,1.4h2c.1,0,.2,0,.2-.1C293,27.5,293,27.4,292.9,27.4Z"/><path class="cls-1" d="M209.9,0h-2.5a.79.79,0,0,0-.8.8V12.2H191.3V.2a.22.22,0,0,0-.2-.2h-2.5a.79.79,0,0,0-.8.8V27.5a.22.22,0,0,0,.2.2h2.5a.79.79,0,0,0,.8-.8V15.5h15.3v12a.22.22,0,0,0,.2.2h2.5a.79.79,0,0,0,.8-.8V.2A.22.22,0,0,0,209.9,0Z"/><path class="cls-1" d="M242.7,0h-2.5a.79.79,0,0,0-.8.8V27.5a.35.35,0,0,0,.1.2h2.7a.79.79,0,0,0,.8-.8V24.6h0V.2C242.9.1,242.8,0,242.7,0Z"/><path class="cls-1" d="M69.4,0H53.5a4.17,4.17,0,0,0-4,3v.2c0,.1.1.1.2.1H65.6a4.17,4.17,0,0,0,4-3V.1C69.5,0,69.5,0,69.4,0Z"/><path class="cls-1" d="M68,12.2H52.1a4.17,4.17,0,0,0-4,3v.2c0,.1.1.1.2.1H64.2a4.17,4.17,0,0,0,4-3v-.2C68.1,12.2,68.1,12.2,68,12.2Z"/><path class="cls-1" d="M66.2,24.4H50.3a4.17,4.17,0,0,0-4,3v.2c0,.1.1.1.2.1H62.4a4.17,4.17,0,0,0,4-3v-.2A.35.35,0,0,1,66.2,24.4Z"/><path class="cls-1" d="M97,26V.8a.88.88,0,0,1,.9-.8h2.5a.22.22,0,0,1,.2.2V24.4H117a.22.22,0,0,1,.2.2V27a.68.68,0,0,1-.7.7H98.8A1.77,1.77,0,0,1,97,26Z"/></g></g></svg>